<mxfile host="app.diagrams.net" modified="2024-07-23T09:03:54.538Z" agent="Mozilla/5.0 (Windows NT 10.0; Win64; x64) AppleWebKit/537.36 (KHTML, like Gecko) Chrome/126.0.0.0 Safari/537.36" etag="38IekFZJwdCQye4-yauM" version="24.7.3" type="device">
  <diagram name="Page-1" id="zbtqPHMfu1uRewWI-7Sd">
    <mxGraphModel dx="880" dy="434" grid="1" gridSize="10" guides="1" tooltips="1" connect="1" arrows="1" fold="1" page="1" pageScale="1" pageWidth="850" pageHeight="1100" math="0" shadow="0">
      <root>
        <mxCell id="0" />
        <mxCell id="1" parent="0" />
        <mxCell id="XqbUk4HYGCtjtvP8X9GV-26" style="edgeStyle=orthogonalEdgeStyle;rounded=0;orthogonalLoop=1;jettySize=auto;html=1;entryX=0.5;entryY=0;entryDx=0;entryDy=0;" parent="1" source="XqbUk4HYGCtjtvP8X9GV-1" target="XqbUk4HYGCtjtvP8X9GV-5" edge="1">
          <mxGeometry relative="1" as="geometry">
            <Array as="points">
              <mxPoint x="380" y="140" />
              <mxPoint x="80" y="140" />
            </Array>
          </mxGeometry>
        </mxCell>
        <mxCell id="XqbUk4HYGCtjtvP8X9GV-27" style="edgeStyle=orthogonalEdgeStyle;rounded=0;orthogonalLoop=1;jettySize=auto;html=1;entryX=0.5;entryY=0;entryDx=0;entryDy=0;" parent="1" source="XqbUk4HYGCtjtvP8X9GV-1" target="XqbUk4HYGCtjtvP8X9GV-3" edge="1">
          <mxGeometry relative="1" as="geometry">
            <Array as="points">
              <mxPoint x="380" y="140" />
              <mxPoint x="200" y="140" />
            </Array>
          </mxGeometry>
        </mxCell>
        <mxCell id="XqbUk4HYGCtjtvP8X9GV-28" style="edgeStyle=orthogonalEdgeStyle;rounded=0;orthogonalLoop=1;jettySize=auto;html=1;entryX=0.5;entryY=0;entryDx=0;entryDy=0;" parent="1" source="XqbUk4HYGCtjtvP8X9GV-1" target="XqbUk4HYGCtjtvP8X9GV-2" edge="1">
          <mxGeometry relative="1" as="geometry" />
        </mxCell>
        <mxCell id="XqbUk4HYGCtjtvP8X9GV-29" style="edgeStyle=orthogonalEdgeStyle;rounded=0;orthogonalLoop=1;jettySize=auto;html=1;entryX=0.5;entryY=0;entryDx=0;entryDy=0;" parent="1" source="XqbUk4HYGCtjtvP8X9GV-1" target="XqbUk4HYGCtjtvP8X9GV-13" edge="1">
          <mxGeometry relative="1" as="geometry" />
        </mxCell>
        <mxCell id="XqbUk4HYGCtjtvP8X9GV-30" style="edgeStyle=orthogonalEdgeStyle;rounded=0;orthogonalLoop=1;jettySize=auto;html=1;entryX=0.5;entryY=0;entryDx=0;entryDy=0;" parent="1" source="XqbUk4HYGCtjtvP8X9GV-1" target="XqbUk4HYGCtjtvP8X9GV-4" edge="1">
          <mxGeometry relative="1" as="geometry">
            <Array as="points">
              <mxPoint x="380" y="140" />
              <mxPoint x="560" y="140" />
            </Array>
          </mxGeometry>
        </mxCell>
        <mxCell id="XqbUk4HYGCtjtvP8X9GV-31" style="edgeStyle=orthogonalEdgeStyle;rounded=0;orthogonalLoop=1;jettySize=auto;html=1;" parent="1" source="XqbUk4HYGCtjtvP8X9GV-1" target="XqbUk4HYGCtjtvP8X9GV-6" edge="1">
          <mxGeometry relative="1" as="geometry">
            <Array as="points">
              <mxPoint x="380" y="140" />
              <mxPoint x="680" y="140" />
            </Array>
          </mxGeometry>
        </mxCell>
        <mxCell id="XqbUk4HYGCtjtvP8X9GV-1" value="Hệ thống quản lý nhà trọ và cho thuê phòng" style="rounded=0;whiteSpace=wrap;html=1;" parent="1" vertex="1">
          <mxGeometry x="300" y="60" width="160" height="60" as="geometry" />
        </mxCell>
        <mxCell id="d4tZR1MMgaJqFNB_3q-F-5" style="edgeStyle=orthogonalEdgeStyle;rounded=0;orthogonalLoop=1;jettySize=auto;html=1;entryX=0;entryY=0.5;entryDx=0;entryDy=0;" parent="1" source="XqbUk4HYGCtjtvP8X9GV-2" target="d4tZR1MMgaJqFNB_3q-F-4" edge="1">
          <mxGeometry relative="1" as="geometry">
            <Array as="points">
              <mxPoint x="270" y="190" />
              <mxPoint x="270" y="275" />
            </Array>
          </mxGeometry>
        </mxCell>
        <mxCell id="d4tZR1MMgaJqFNB_3q-F-7" style="edgeStyle=orthogonalEdgeStyle;rounded=0;orthogonalLoop=1;jettySize=auto;html=1;entryX=0;entryY=0.5;entryDx=0;entryDy=0;" parent="1" source="XqbUk4HYGCtjtvP8X9GV-2" target="d4tZR1MMgaJqFNB_3q-F-3" edge="1">
          <mxGeometry relative="1" as="geometry">
            <Array as="points">
              <mxPoint x="270" y="190" />
              <mxPoint x="270" y="395" />
            </Array>
          </mxGeometry>
        </mxCell>
        <mxCell id="d4tZR1MMgaJqFNB_3q-F-8" style="edgeStyle=orthogonalEdgeStyle;rounded=0;orthogonalLoop=1;jettySize=auto;html=1;entryX=0;entryY=0.5;entryDx=0;entryDy=0;" parent="1" source="XqbUk4HYGCtjtvP8X9GV-2" target="d4tZR1MMgaJqFNB_3q-F-2" edge="1">
          <mxGeometry relative="1" as="geometry">
            <Array as="points">
              <mxPoint x="270" y="190" />
              <mxPoint x="270" y="515" />
            </Array>
          </mxGeometry>
        </mxCell>
        <mxCell id="XqbUk4HYGCtjtvP8X9GV-2" value="3. Quản lý khách hàng" style="rounded=0;whiteSpace=wrap;html=1;" parent="1" vertex="1">
          <mxGeometry x="280" y="160" width="80" height="60" as="geometry" />
        </mxCell>
        <mxCell id="XqbUk4HYGCtjtvP8X9GV-36" style="edgeStyle=orthogonalEdgeStyle;rounded=0;orthogonalLoop=1;jettySize=auto;html=1;entryX=0;entryY=0.5;entryDx=0;entryDy=0;" parent="1" source="XqbUk4HYGCtjtvP8X9GV-3" target="XqbUk4HYGCtjtvP8X9GV-34" edge="1">
          <mxGeometry relative="1" as="geometry">
            <Array as="points">
              <mxPoint x="150" y="190" />
              <mxPoint x="150" y="275" />
            </Array>
          </mxGeometry>
        </mxCell>
        <mxCell id="XqbUk4HYGCtjtvP8X9GV-37" style="edgeStyle=orthogonalEdgeStyle;rounded=0;orthogonalLoop=1;jettySize=auto;html=1;entryX=0;entryY=0.5;entryDx=0;entryDy=0;" parent="1" source="XqbUk4HYGCtjtvP8X9GV-3" target="XqbUk4HYGCtjtvP8X9GV-33" edge="1">
          <mxGeometry relative="1" as="geometry">
            <Array as="points">
              <mxPoint x="150" y="190" />
              <mxPoint x="150" y="395" />
            </Array>
          </mxGeometry>
        </mxCell>
        <mxCell id="XqbUk4HYGCtjtvP8X9GV-38" style="edgeStyle=orthogonalEdgeStyle;rounded=0;orthogonalLoop=1;jettySize=auto;html=1;entryX=0;entryY=0.5;entryDx=0;entryDy=0;" parent="1" source="XqbUk4HYGCtjtvP8X9GV-3" target="XqbUk4HYGCtjtvP8X9GV-32" edge="1">
          <mxGeometry relative="1" as="geometry">
            <Array as="points">
              <mxPoint x="150" y="190" />
              <mxPoint x="150" y="515" />
            </Array>
          </mxGeometry>
        </mxCell>
        <mxCell id="XqbUk4HYGCtjtvP8X9GV-3" value="2. Quản lý tài chính" style="rounded=0;whiteSpace=wrap;html=1;" parent="1" vertex="1">
          <mxGeometry x="160" y="160" width="80" height="60" as="geometry" />
        </mxCell>
        <mxCell id="d4tZR1MMgaJqFNB_3q-F-22" style="edgeStyle=orthogonalEdgeStyle;rounded=0;orthogonalLoop=1;jettySize=auto;html=1;entryX=0;entryY=0.5;entryDx=0;entryDy=0;" parent="1" source="XqbUk4HYGCtjtvP8X9GV-4" target="d4tZR1MMgaJqFNB_3q-F-21" edge="1">
          <mxGeometry relative="1" as="geometry">
            <Array as="points">
              <mxPoint x="510" y="190" />
              <mxPoint x="510" y="275" />
            </Array>
          </mxGeometry>
        </mxCell>
        <mxCell id="d4tZR1MMgaJqFNB_3q-F-23" style="edgeStyle=orthogonalEdgeStyle;rounded=0;orthogonalLoop=1;jettySize=auto;html=1;entryX=0;entryY=0.5;entryDx=0;entryDy=0;" parent="1" source="XqbUk4HYGCtjtvP8X9GV-4" target="d4tZR1MMgaJqFNB_3q-F-20" edge="1">
          <mxGeometry relative="1" as="geometry">
            <Array as="points">
              <mxPoint x="510" y="190" />
              <mxPoint x="510" y="395" />
            </Array>
          </mxGeometry>
        </mxCell>
        <mxCell id="d4tZR1MMgaJqFNB_3q-F-24" style="edgeStyle=orthogonalEdgeStyle;rounded=0;orthogonalLoop=1;jettySize=auto;html=1;entryX=0;entryY=0.5;entryDx=0;entryDy=0;" parent="1" source="XqbUk4HYGCtjtvP8X9GV-4" target="d4tZR1MMgaJqFNB_3q-F-19" edge="1">
          <mxGeometry relative="1" as="geometry">
            <Array as="points">
              <mxPoint x="510" y="190" />
              <mxPoint x="510" y="515" />
            </Array>
          </mxGeometry>
        </mxCell>
        <mxCell id="d4tZR1MMgaJqFNB_3q-F-25" style="edgeStyle=orthogonalEdgeStyle;rounded=0;orthogonalLoop=1;jettySize=auto;html=1;entryX=0;entryY=0.5;entryDx=0;entryDy=0;" parent="1" source="XqbUk4HYGCtjtvP8X9GV-4" target="d4tZR1MMgaJqFNB_3q-F-18" edge="1">
          <mxGeometry relative="1" as="geometry">
            <Array as="points">
              <mxPoint x="510" y="190" />
              <mxPoint x="510" y="635" />
            </Array>
          </mxGeometry>
        </mxCell>
        <mxCell id="d4tZR1MMgaJqFNB_3q-F-26" style="edgeStyle=orthogonalEdgeStyle;rounded=0;orthogonalLoop=1;jettySize=auto;html=1;entryX=0;entryY=0.5;entryDx=0;entryDy=0;" parent="1" source="XqbUk4HYGCtjtvP8X9GV-4" target="d4tZR1MMgaJqFNB_3q-F-17" edge="1">
          <mxGeometry relative="1" as="geometry">
            <Array as="points">
              <mxPoint x="510" y="190" />
              <mxPoint x="510" y="755" />
            </Array>
          </mxGeometry>
        </mxCell>
        <mxCell id="d4tZR1MMgaJqFNB_3q-F-27" style="edgeStyle=orthogonalEdgeStyle;rounded=0;orthogonalLoop=1;jettySize=auto;html=1;entryX=0;entryY=0.5;entryDx=0;entryDy=0;" parent="1" source="XqbUk4HYGCtjtvP8X9GV-4" target="d4tZR1MMgaJqFNB_3q-F-16" edge="1">
          <mxGeometry relative="1" as="geometry">
            <Array as="points">
              <mxPoint x="510" y="190" />
              <mxPoint x="510" y="875" />
            </Array>
          </mxGeometry>
        </mxCell>
        <mxCell id="XqbUk4HYGCtjtvP8X9GV-4" value="5. Bảo vệ an ninh" style="rounded=0;whiteSpace=wrap;html=1;" parent="1" vertex="1">
          <mxGeometry x="520" y="160" width="80" height="60" as="geometry" />
        </mxCell>
        <mxCell id="XqbUk4HYGCtjtvP8X9GV-21" style="edgeStyle=orthogonalEdgeStyle;rounded=0;orthogonalLoop=1;jettySize=auto;html=1;entryX=0;entryY=0.5;entryDx=0;entryDy=0;" parent="1" source="XqbUk4HYGCtjtvP8X9GV-5" target="XqbUk4HYGCtjtvP8X9GV-15" edge="1">
          <mxGeometry relative="1" as="geometry">
            <Array as="points">
              <mxPoint x="30" y="190" />
              <mxPoint x="30" y="275" />
            </Array>
          </mxGeometry>
        </mxCell>
        <mxCell id="XqbUk4HYGCtjtvP8X9GV-23" style="edgeStyle=orthogonalEdgeStyle;rounded=0;orthogonalLoop=1;jettySize=auto;html=1;entryX=0;entryY=0.5;entryDx=0;entryDy=0;" parent="1" source="XqbUk4HYGCtjtvP8X9GV-5" target="XqbUk4HYGCtjtvP8X9GV-16" edge="1">
          <mxGeometry relative="1" as="geometry">
            <Array as="points">
              <mxPoint x="30" y="190" />
              <mxPoint x="30" y="395" />
            </Array>
          </mxGeometry>
        </mxCell>
        <mxCell id="XqbUk4HYGCtjtvP8X9GV-24" style="edgeStyle=orthogonalEdgeStyle;rounded=0;orthogonalLoop=1;jettySize=auto;html=1;entryX=0;entryY=0.5;entryDx=0;entryDy=0;" parent="1" source="XqbUk4HYGCtjtvP8X9GV-5" target="XqbUk4HYGCtjtvP8X9GV-18" edge="1">
          <mxGeometry relative="1" as="geometry">
            <Array as="points">
              <mxPoint x="30" y="190" />
              <mxPoint x="30" y="515" />
            </Array>
          </mxGeometry>
        </mxCell>
        <mxCell id="XqbUk4HYGCtjtvP8X9GV-25" style="edgeStyle=orthogonalEdgeStyle;rounded=0;orthogonalLoop=1;jettySize=auto;html=1;entryX=0;entryY=0.5;entryDx=0;entryDy=0;" parent="1" source="XqbUk4HYGCtjtvP8X9GV-5" target="XqbUk4HYGCtjtvP8X9GV-19" edge="1">
          <mxGeometry relative="1" as="geometry">
            <Array as="points">
              <mxPoint x="30" y="190" />
              <mxPoint x="30" y="635" />
            </Array>
          </mxGeometry>
        </mxCell>
        <mxCell id="XqbUk4HYGCtjtvP8X9GV-5" value="1. Quản lí thuê nhà" style="rounded=0;whiteSpace=wrap;html=1;" parent="1" vertex="1">
          <mxGeometry x="40" y="160" width="80" height="60" as="geometry" />
        </mxCell>
        <mxCell id="XqbUk4HYGCtjtvP8X9GV-6" value="6. Báo cáo" style="rounded=0;whiteSpace=wrap;html=1;" parent="1" vertex="1">
          <mxGeometry x="640" y="160" width="80" height="60" as="geometry" />
        </mxCell>
        <mxCell id="d4tZR1MMgaJqFNB_3q-F-13" style="edgeStyle=orthogonalEdgeStyle;rounded=0;orthogonalLoop=1;jettySize=auto;html=1;entryX=0;entryY=0.5;entryDx=0;entryDy=0;" parent="1" source="XqbUk4HYGCtjtvP8X9GV-13" target="d4tZR1MMgaJqFNB_3q-F-11" edge="1">
          <mxGeometry relative="1" as="geometry">
            <Array as="points">
              <mxPoint x="390" y="190" />
              <mxPoint x="390" y="275" />
            </Array>
          </mxGeometry>
        </mxCell>
        <mxCell id="d4tZR1MMgaJqFNB_3q-F-14" style="edgeStyle=orthogonalEdgeStyle;rounded=0;orthogonalLoop=1;jettySize=auto;html=1;entryX=0;entryY=0.5;entryDx=0;entryDy=0;" parent="1" source="XqbUk4HYGCtjtvP8X9GV-13" target="d4tZR1MMgaJqFNB_3q-F-10" edge="1">
          <mxGeometry relative="1" as="geometry">
            <Array as="points">
              <mxPoint x="390" y="190" />
              <mxPoint x="390" y="395" />
            </Array>
          </mxGeometry>
        </mxCell>
        <mxCell id="d4tZR1MMgaJqFNB_3q-F-15" style="edgeStyle=orthogonalEdgeStyle;rounded=0;orthogonalLoop=1;jettySize=auto;html=1;entryX=0;entryY=0.5;entryDx=0;entryDy=0;" parent="1" source="XqbUk4HYGCtjtvP8X9GV-13" target="d4tZR1MMgaJqFNB_3q-F-9" edge="1">
          <mxGeometry relative="1" as="geometry">
            <Array as="points">
              <mxPoint x="390" y="190" />
              <mxPoint x="390" y="515" />
            </Array>
          </mxGeometry>
        </mxCell>
        <mxCell id="XqbUk4HYGCtjtvP8X9GV-13" value="4. Quản lý tài sản" style="rounded=0;whiteSpace=wrap;html=1;" parent="1" vertex="1">
          <mxGeometry x="400" y="160" width="80" height="60" as="geometry" />
        </mxCell>
        <mxCell id="XqbUk4HYGCtjtvP8X9GV-15" value="1.1. Đăng kí và đăng nhập tài khoản" style="whiteSpace=wrap;html=1;aspect=fixed;" parent="1" vertex="1">
          <mxGeometry x="50" y="240" width="70" height="70" as="geometry" />
        </mxCell>
        <mxCell id="XqbUk4HYGCtjtvP8X9GV-16" value="1.2. Theo dõi hợp đồng và thông báo gia hạn&amp;nbsp;" style="whiteSpace=wrap;html=1;aspect=fixed;" parent="1" vertex="1">
          <mxGeometry x="50" y="360" width="70" height="70" as="geometry" />
        </mxCell>
        <mxCell id="XqbUk4HYGCtjtvP8X9GV-18" value="1.3. Lập hợp đồng thuê nhà, phiếu tạm trú" style="whiteSpace=wrap;html=1;aspect=fixed;" parent="1" vertex="1">
          <mxGeometry x="50" y="480" width="70" height="70" as="geometry" />
        </mxCell>
        <mxCell id="XqbUk4HYGCtjtvP8X9GV-19" value="1.4. Thông báo xác nhận và bàn giao phòng" style="whiteSpace=wrap;html=1;aspect=fixed;" parent="1" vertex="1">
          <mxGeometry x="50" y="600" width="70" height="70" as="geometry" />
        </mxCell>
        <mxCell id="XqbUk4HYGCtjtvP8X9GV-32" value="2.3. Lập phiếu thu tiền" style="whiteSpace=wrap;html=1;aspect=fixed;" parent="1" vertex="1">
          <mxGeometry x="170" y="480" width="70" height="70" as="geometry" />
        </mxCell>
        <mxCell id="XqbUk4HYGCtjtvP8X9GV-33" value="2.2. Tạo báo cáo tài chính" style="whiteSpace=wrap;html=1;aspect=fixed;" parent="1" vertex="1">
          <mxGeometry x="170" y="360" width="70" height="70" as="geometry" />
        </mxCell>
        <mxCell id="XqbUk4HYGCtjtvP8X9GV-34" value="2.1. Theo dõi doanh thu và chi phí" style="whiteSpace=wrap;html=1;aspect=fixed;" parent="1" vertex="1">
          <mxGeometry x="170" y="240" width="70" height="70" as="geometry" />
        </mxCell>
        <mxCell id="d4tZR1MMgaJqFNB_3q-F-2" value="3.3. Lưu trữ quản lý thông tin cá nhân khách hàng" style="whiteSpace=wrap;html=1;aspect=fixed;" parent="1" vertex="1">
          <mxGeometry x="290" y="480" width="70" height="70" as="geometry" />
        </mxCell>
        <mxCell id="d4tZR1MMgaJqFNB_3q-F-3" value="3.2. Tạo và quản lý các chương trình khuyến mãi" style="whiteSpace=wrap;html=1;aspect=fixed;" parent="1" vertex="1">
          <mxGeometry x="290" y="360" width="70" height="70" as="geometry" />
        </mxCell>
        <mxCell id="d4tZR1MMgaJqFNB_3q-F-4" value="3.1. Cung cấp hệ thống quản lý hỗ trợ" style="whiteSpace=wrap;html=1;aspect=fixed;" parent="1" vertex="1">
          <mxGeometry x="290" y="240" width="70" height="70" as="geometry" />
        </mxCell>
        <mxCell id="d4tZR1MMgaJqFNB_3q-F-9" value="4.3. Tạo và quản lí báo cáo bảo trì" style="whiteSpace=wrap;html=1;aspect=fixed;" parent="1" vertex="1">
          <mxGeometry x="410" y="480" width="70" height="70" as="geometry" />
        </mxCell>
        <mxCell id="d4tZR1MMgaJqFNB_3q-F-10" value="4.2. Lập hoá đơn chi phí bảo trì" style="whiteSpace=wrap;html=1;aspect=fixed;" parent="1" vertex="1">
          <mxGeometry x="410" y="360" width="70" height="70" as="geometry" />
        </mxCell>
        <mxCell id="d4tZR1MMgaJqFNB_3q-F-11" value="4.1. Theo dõi tình trạng và lịch sửa chữa từng phòng" style="whiteSpace=wrap;html=1;aspect=fixed;" parent="1" vertex="1">
          <mxGeometry x="410" y="240" width="70" height="70" as="geometry" />
        </mxCell>
        <mxCell id="d4tZR1MMgaJqFNB_3q-F-16" value="5.6. Tạo và quản lí báo cáo an ninh" style="whiteSpace=wrap;html=1;aspect=fixed;" parent="1" vertex="1">
          <mxGeometry x="530" y="840" width="70" height="70" as="geometry" />
        </mxCell>
        <mxCell id="d4tZR1MMgaJqFNB_3q-F-17" value="5.5. Lập hoá đơn bồi thường sự cố" style="whiteSpace=wrap;html=1;aspect=fixed;" parent="1" vertex="1">
          <mxGeometry x="530" y="720" width="70" height="70" as="geometry" />
        </mxCell>
        <mxCell id="d4tZR1MMgaJqFNB_3q-F-18" value="5.4. Tạo và quản lí thông tin sinh trắc và tài sản" style="whiteSpace=wrap;html=1;aspect=fixed;" parent="1" vertex="1">
          <mxGeometry x="530" y="600" width="70" height="70" as="geometry" />
        </mxCell>
        <mxCell id="d4tZR1MMgaJqFNB_3q-F-19" value="5.3. Nhận thông báo về sự cố khẩn cấp" style="whiteSpace=wrap;html=1;aspect=fixed;" parent="1" vertex="1">
          <mxGeometry x="530" y="480" width="70" height="70" as="geometry" />
        </mxCell>
        <mxCell id="d4tZR1MMgaJqFNB_3q-F-20" value="5.2. Cấp và thu hồi quyền truy cập" style="whiteSpace=wrap;html=1;aspect=fixed;" parent="1" vertex="1">
          <mxGeometry x="530" y="360" width="70" height="70" as="geometry" />
        </mxCell>
        <mxCell id="d4tZR1MMgaJqFNB_3q-F-21" value="5.1. Giám sát an ninh theo thời gian thực" style="whiteSpace=wrap;html=1;aspect=fixed;" parent="1" vertex="1">
          <mxGeometry x="530" y="240" width="70" height="70" as="geometry" />
        </mxCell>
      </root>
    </mxGraphModel>
  </diagram>
</mxfile>
